<svg width="55" height="55" viewBox="0 0 55 55" fill="none" xmlns="http://www.w3.org/2000/svg">
<path d="M37.933 14.9672H32.1914" stroke="#FF0000" stroke-miterlimit="10"/>
<path d="M18.5264 24.7346H37.78" stroke="#FF0000" stroke-miterlimit="10"/>
<path d="M24.1915 14.9289L18.4116 14.8906" stroke="#FF0000" stroke-miterlimit="10"/>
<path d="M18.4115 14.8906L8 19.7169L18.5263 24.7347" stroke="#FF0000" stroke-miterlimit="10"/>
<path d="M37.5504 14.8906L48.0001 19.7169L37.4355 24.7347" stroke="#FF0000" stroke-miterlimit="10"/>
<path d="M34.7944 40.9754L28.1724 34.3872V24.7346" stroke="#FF0000" stroke-miterlimit="10"/>
<path d="M21.5889 40.9755L28.1726 34.3872" stroke="#FF0000" stroke-miterlimit="10"/>
<path d="M11.981 35H21.5886L28.1723 24.7346H18.5647" stroke="#FF0000" stroke-miterlimit="10"/>
<path d="M44.402 35H34.7944L28.1724 24.7346H37.8183" stroke="#FF0000" stroke-miterlimit="10"/>
<path d="M44.402 35H34.7944V40.9754L28.1723 47.5636L21.5886 40.9754V35H11.981" stroke="#FF0000" stroke-miterlimit="10"/>
<path d="M32.1531 14.9672L28.1723 10.9836L24.1914 14.9672" stroke="#FF0000" stroke-miterlimit="10"/>
<path d="M28.1723 10.9836L24.1914 7" stroke="#FF0000" stroke-miterlimit="10"/>
<path d="M28.1724 10.9836L32.1532 7" stroke="#FF0000" stroke-miterlimit="10"/>
<path d="M37.9714 20.7893V14.9672H32.1532L28.1724 18.9508V24.7346H33.9905L37.9714 20.7893Z" stroke="#FF0000" stroke-miterlimit="10"/>
<path d="M18.4116 20.7893V14.9672H24.2298L28.1724 18.9508V24.7346H22.3925L18.4116 20.7893Z" stroke="#FF0000" stroke-miterlimit="10"/>
<path d="M18.4116 20.7893V14.9672H24.2298L28.1724 18.9508V24.7346H22.3925L18.4116 20.7893Z" stroke="#FF0000" stroke-miterlimit="10"/>
<path d="M11.981 35V31.591L18.5647 24.7346" stroke="#FF0000" stroke-miterlimit="10"/>
<path d="M44.4021 35V31.591L37.8184 24.7346" stroke="#FF0000" stroke-miterlimit="10"/>
</svg>
