<svg width="55" height="55" viewBox="0 0 55 55" fill="none" xmlns="http://www.w3.org/2000/svg">
<path d="M27.9786 18.6402L22.1797 12.8413L27.9786 7L33.8199 12.8413L27.9786 18.6402Z" stroke="#FF0000" stroke-miterlimit="10" stroke-linejoin="bevel"/>
<path d="M36.3599 26.9789L42.1588 21.1799L48.0001 26.9789L42.1588 32.8201L36.3599 26.9789Z" stroke="#FF0000" stroke-miterlimit="10" stroke-linejoin="bevel"/>
<path d="M19.6402 26.9789L13.8413 21.1799L8 26.9789L13.8413 32.8201L19.6402 26.9789Z" stroke="#FF0000" stroke-miterlimit="10" stroke-linejoin="bevel"/>
<path d="M27.979 35.3597V49.7089" stroke="#FF0000" stroke-miterlimit="10" stroke-linejoin="bevel"/>
<path d="M13.8838 32.7355V41.1164H22.2647L27.979 35.3598V26.9789H19.5981L13.8838 32.7355Z" stroke="#FF0000" stroke-miterlimit="10" stroke-linejoin="bevel"/>
<path d="M42.1166 32.7355V41.1164H33.7356L27.979 35.3598V26.9789H36.36L42.1166 32.7355Z" stroke="#FF0000" stroke-miterlimit="10" stroke-linejoin="bevel"/>
<path d="M42.1166 32.7355V41.1164H33.7356L27.979 35.3598V26.9789H36.36L42.1166 32.7355Z" stroke="#FF0000" stroke-miterlimit="10" stroke-linejoin="bevel"/>
<path d="M13.8838 21.2645V12.8835H22.2647L27.979 18.5978V26.9788H19.5981L13.8838 21.2645Z" stroke="#FF0000" stroke-miterlimit="10" stroke-linejoin="bevel"/>
<path d="M42.1166 21.2645V12.8835H33.7356L27.979 18.5978V26.9788H36.36L42.1166 21.2645Z" stroke="#FF0000" stroke-miterlimit="10" stroke-linejoin="bevel"/>
<path d="M42.1166 21.2645V12.8835H33.7356L27.979 18.5978V26.9788H36.36L42.1166 21.2645Z" stroke="#FF0000" stroke-miterlimit="10" stroke-linejoin="bevel"/>
</svg>
