<svg width="55" height="55" viewBox="0 0 55 55" fill="none" xmlns="http://www.w3.org/2000/svg">
<path d="M22.355 14.2525H31.8411L27.098 9.50574L22.355 14.2525Z" stroke="#FF0000" stroke-miterlimit="10" stroke-linejoin="bevel"/>
<path d="M40.0205 18.9509L44.7636 27.1852L46.4575 20.6947L40.0205 18.9509Z" stroke="#FF0000" stroke-miterlimit="10" stroke-linejoin="bevel"/>
<path d="M9.43272 27.1852L14.1758 18.9509L7.73877 20.6947L9.43272 27.1852Z" stroke="#FF0000" stroke-miterlimit="10" stroke-linejoin="bevel"/>
<path d="M37.31 14.2526H16.8857L27.0978 31.8836L37.31 14.2526Z" stroke="#FF0000" stroke-miterlimit="10" stroke-linejoin="bevel"/>
<path d="M27.0981 31.8836H47.474L37.3103 14.2526L27.0981 31.8836Z" stroke="#FF0000" stroke-miterlimit="10" stroke-linejoin="bevel"/>
<path d="M11.6104 31.8835L19.3541 45.349L27.0979 31.8835H11.6104Z" stroke="#FF0000" stroke-miterlimit="10" stroke-linejoin="bevel"/>
<path d="M27.0978 31.8835L19.354 45.349H34.8416L27.0978 31.8835Z" stroke="#FF0000" stroke-miterlimit="10" stroke-linejoin="bevel"/>
<path d="M27.0981 31.8835L34.8419 45.349L42.5857 31.8835H27.0981Z" stroke="#FF0000" stroke-miterlimit="10" stroke-linejoin="bevel"/>
<path d="M27.098 31.8836L16.8859 14.2526L6.72217 31.8836H27.098Z" stroke="#FF0000" stroke-miterlimit="10" stroke-linejoin="bevel"/>
</svg>
